<svg width="90" height="59" viewBox="0 0 90 59" xmlns="http://www.w3.org/2000/svg"><title>Group 33</title><g fill="#FEFEFE" fill-rule="evenodd"><path d="M89.862 28.927v.014c-1.387-7.178-10.884-9.572-10.884-9.572s-4.415-1.293-9.073-2.822c-.102-.052-.687-.254-.687-.254-1.498-.629-5.274-2.642-3.894-6.572.004-.011 1.216-4.158 8.425-4.631h16.113V0H46.837v10.539-.014c1.387 7.179 11.072 9.571 11.072 9.571s5.15 1.294 9.808 2.823c.103.052.687.255.687.255 1.5.627 4.834 2.64 3.453 6.571-.004.012-1.215 4.157-8.427 4.63H46.837v4.927h36.646c.044-.02.083.018.125 0h6.254V28.927zM28.269 0v30.184c0 .035-.174 5.659-6.4 5.582 0 0-6.294.23-6.294-8.722v-5.635H.001v2.633c.002-.05-.334 12.3 11.522 15.26h32V0H28.27zM14.495 57.704a6.66 6.66 0 0 0 2.222-1.172 7.55 7.55 0 0 0 1.597-1.708c.432-.653.824-1.49 1.165-2.481 0 0 2.598-7.606 2.808-8.226h-3.53l-2.592 7.589c-.506 1.48-1.044 2.463-1.597 2.924-.587.476-1.478.715-2.65.715h-3.7l-.913 2.672h4.084s2.298-.062 3.106-.313M32.794 54.854c.366-.203.62-.523.777-.98.197-.574.09-.876-.06-1.056-.367-.33-1.381-.268-1.381-.268h-2.375c-1.623 0-2.76-.336-3.37-.989-.3-.358-.45-.827-.45-1.4 0-.49.109-1.056.327-1.697.505-1.477 1.31-2.585 2.394-3.295 1.068-.698 2.501-1.052 4.26-1.052h6.857l-.969 2.837-6.459.007c-.762 0-1.327.123-1.713.368-.372.216-.657.604-.844 1.155 0 0-.23.608.063.933.23.218.606.325 1.145.325h2.802c1.717 0 2.8.307 3.314.938.257.317.385.741.385 1.27 0 .512-.12 1.122-.359 1.824-.494 1.44-1.288 2.519-2.36 3.207-1.076.689-2.503 1.036-4.241 1.036h-6.97l.968-2.835h6.536s.982-.003 1.723-.328M43.507 53.862l1.285-3.759h2.888c.09-.267.653-1.913.82-2.403h-2.886l1.225-3.583h-3.161L42.453 47.7h-1.92l-.82 2.404h1.92l-1.575 4.604c-.181.532-.273 1.007-.273 1.412 0 .418.098.771.292 1.05.377.565 1.109.848 2.176.848h2.721l.82-2.402H44.45c-.571 0-.94-.12-1.098-.357 0 0-.2-.404.156-1.396M51.601 52.826c.268-.818.653-1.44 1.148-1.85.5-.445 1.09-.675 1.744-.675.673 0 1.124.239 1.343.712.247.447.245 1.082-.013 1.87-.257.799-.66 1.43-1.195 1.872a2.523 2.523 0 0 1-1.73.66c-.66 0-1.116-.233-1.354-.693 0 0-.358-.635.057-1.896m-.701-3.833h-.001a7.744 7.744 0 0 0-2.87 3.871c-.555 1.623-.48 2.925.221 3.867.69.962 1.914 1.45 3.642 1.45 1.72 0 3.277-.491 4.627-1.455 1.36-.967 2.326-2.272 2.876-3.879.554-1.62.48-2.924-.218-3.877-.693-.951-1.914-1.432-3.63-1.432-1.744 0-3.307.49-4.647 1.455M67.161 50.043H65.61s-2.617 7.646-2.728 7.975h-3.163l3.528-10.319h4.818c1.138 0 1.866.203 2.17.61.15.19.235.463.249.812l.001.075c0 .339-.08.742-.24 1.203l-.625 1.89h-3.046l.514-1.506s.279-.724.073-.74M83.873 51.851s-1.659 4.857-2.108 6.166h3.19l2.221-6.499c.213-.622.32-1.167.32-1.632 0-.534-.141-.964-.42-1.284-.533-.608-1.55-.902-3.11-.902H73.282c-.111.321-3.316 9.698-3.528 10.317h3.19l2.638-7.724h2.761l-2.64 7.724h3.218c.113-.327 2.642-7.725 2.642-7.725l1.284-.027c.572 0 .937.077 1.122.235 0 0 .293.167-.095 1.351"/></g></svg>